<?xml version="1.0" encoding="UTF-8"?>
<svg xmlns="http://www.w3.org/2000/svg" width="17mm" height="24mm" viewBox="0 0 68 96">
  <!-- 牌種類表示エリア（右上） -->
  <text 
    id="tile-type-placeholder" 
    x="64" 
    y="12" 
    font-family="sans-serif" 
    font-size="8" 
    text-anchor="end" 
    fill="#666666"
  >西</text>
  
  <!-- AWSアイコン表示エリア（中央） -->
  <g id="icon-placeholder" transform="translate(4, 18)"><g transform="translate(0.00, 0.00) scale(1.5000)"><title>Icon-Architecture-Group/32/Region_32</title>
    <g id="Icon-Architecture-Group/32/Region_32" stroke="none" stroke-width="1" fill="none" fill-rule="evenodd">
        <rect id="Rectangle" fill="#00A4A6" x="0" y="0" width="40" height="40"></rect>
        <path d="M14,20.026 L14,11.026 L29.293,11.026 L25.146,15.172 C24.951,15.368 24.951,15.684 25.146,15.88 L29.293,20.026 L14,20.026 Z M26.207,15.526 L30.854,10.88 C30.996,10.736 31.039,10.522 30.962,10.335 C30.885,10.148 30.702,10.026 30.5,10.026 L14,10.026 L14,8.97 C14.596,8.76 15.026,8.198 15.026,7.531 C15.026,6.687 14.34,6 13.495,6 C12.65,6 11.963,6.687 11.963,7.531 C11.963,8.201 12.398,8.766 13,8.973 L13,33.026 L10,33.026 L10,34.026 L17,34.026 L17,33.026 L14,33.026 L14,21.026 L30.5,21.026 C30.702,21.026 30.885,20.904 30.962,20.717 C31.039,20.53 30.996,20.316 30.854,20.172 L26.207,15.526 Z" id="Fill-1" fill="#FFFFFF"></path>
    </g></g></g>
  
  <!-- サービス名表示エリア（下部） -->
  <text 
    id="service-name-placeholder" 
    x="34" 
    y="88" 
    font-family="sans-serif" 
    font-size="6" 
    text-anchor="middle" 
    fill="#333333"
  >us-west</text>
</svg>